<svg xmlns="http://www.w3.org/2000/svg" viewBox="0 0 1200 1200"><defs><style>.cls-1{fill:#fff;}</style></defs><g id="Capa_2" data-name="Capa 2"><path class="cls-1" d="M545.05,395.46c.2,2.75-1.37,6,4.15,5.84,4.84-.16,10.89-1.26,14.26,6.51H517.75c9.1-6.89,17.58-10.93,27.41-12.21Z"/><path class="cls-1" d="M545.16,395.6c14.77-10.22,22.38-6.75,28.11,16.4-8.57-11.5-15.74-19.81-28.22-16.53Z"/><path class="cls-1" d="M1164.4,769c-25.48,3-529.59,57.59-529.59,57.59S39.71,890.77,27.13,891.94c40-1.14,259.16-18,316.37-22.28,7.06-.53,12.85-.16,18.62,6C425.05,942.9,495.8,1001,571,1054c9.32,6.56,15.31,7.1,25,.25C684,992.05,765.67,923,836.18,841.21c4.49-5.21,9.09-7.88,16.2-8.39,100-7.16,200-14.82,300-21.94,27.31-1.94,26.74-1.33,27.23-27.46C1179.82,771.53,1177,767.48,1164.4,769ZM718.1,902.4c-39.32,36.43-81.28,69.66-124.4,101.47-5.89,4.35-10.23,7.33-18,1.65C519.77,964.74,466.42,921,417.41,872.05c-1.39-1.39-2.34-3.23-5-7L782,837.89C760.74,862.48,739.51,882.56,718.1,902.4Z"/><path class="cls-1" d="M979.31,372.88C890,344.17,799,325.57,704.71,328.65c-36.24,1.18-73.31,1.66-107.41,16.33C560,361.05,523.41,379,486.66,396.49c-3.78,1.8-9.6,1.92-10.35,7.41,17.13,6.84,32.53,2.86,47.69-5.81a385.9,385.9,0,0,1,35.93-18c24.44-10.79,46.61-27.08,73-32.92,39.6-8.77,79.91-7.9,120-4.41,34,3,33.8,3.55,27.21,37.64-1.49,7.73-3.93,12.08-12.83,12.91-16.32,1.51-32.51,4.52-48.75,6.91,90.21,1.86,179.25-9,268.38-21.46C985.63,374.31,982.32,373.85,979.31,372.88ZM881,369.07c-.34,4.93-6,5.87-9.89,6.69-22.91,4.79-45.9,9.19-68.86,13.71-7.2.6-10.33-2-8.39-9.32.13-.52.24-1,.32-1.57C799,346,799,345.94,831.91,352.39c13,2.56,26.1,5.22,39,8.54C875,362,881.46,362.9,881,369.07Z"/><path class="cls-1" d="M138.8,415.23c2.51,28.18,2.47,27.26,29.47,20.65,12.46-3.05,14.63-8.46,13.1-19.91-4.26-31.92-4.19-64.16-5.9-96.27-.79-14.8,4.64-22.42,17.32-28.27,17.45-8,34-17.95,51.35-26.3,132.63-64,272-92.87,419.2-78.42,124.78,12.25,240.75,53,351.47,110.46,9.62,5,9.06,11.76,9.1,19.72.16,25,.18,25,25.71,27.28a38.68,38.68,0,0,1,6.39.68c7.8,2.08,9.93-.83,10.44-8.76,3.68-58,3.85-57.95-47.66-84.16-1.91-1-3.84-1.89-5.75-2.85-124-61.89-254-102.25-393.34-107.61C467.77,135.61,326,173.3,192.21,243.84c-60,31.64-60.11,31.47-58.24,110C135,367.14,136.66,391.21,138.8,415.23Z"/><path class="cls-1" d="M1080.67,443.35C1070,422.23,1058.83,401,1075,376.68c-4.26-.65-6.34-.91-8.4-1.29-24.25-4.4-46.08,6.58-69.07,10.4-118.14,19.61-237.3,29.1-357,31.74-54.66,1.21-109.39,3.5-164-2.75-27.32-3.13-55.3-2.58-81.39,4.14-11.32,2.91-19.36,1-28.51-1.09-28.47-6.43-55.32-2.74-80.92,10.92-10.64,5.67-20.56,10.47-33.42,13.11-46.9,9.63-90.74,28.48-128.43,59.26-5.87,4.8-11.16,10.29-18.6,17.21,25,3.34,17.6,21.82,20.72,34.45,3.56,14.44,1.66,28.35-17.17,39.48l52.61-4c2-3.54-1.09-4.22-3.09-5.53-22.23,1.61-18.39-16.18-20.89-28.72-1.64-8.25-4.86-18.6-1.49-24.8,3.73-6.84,13.16,3.89,20.54,1.1a15.45,15.45,0,0,0,2.08-1.59l-26.54-14c31.31-18.06,63.87-23.31,96.5-28.46,10-1.57.36,9,6.21,9.87,42.71-70.13,146.12-85,206.51-8.16,5.37-11-7.86-17.47-7.41-27.29,88.21-7.56,175.87-14.51,263.4-22.83,42.51-4,85.95-1,128.81-17.13-32.57,39-39.6,52.16-38,69.27,41.78-69.59,104.34-82.3,178.64-61.86-1.25-10.15-11.43-9.64-16.32-18.25,25.47,10,48.85,2.68,72,.89,17.09-1.32,25.72,5.35,32.34,20.82-8.29,0-15.21,0-22.13,0-7.5,0-10.09,5.66-11.57,11.35-1.53,5.88,4.41,6,7.8,7.68,26.23,12.71,49.55,28.51,61.21,60.75C1098,484.36,1090.93,463.7,1080.67,443.35Z"/><path class="cls-1" d="M48.69,628.43c-29.38,2.17-29,2.68-28,32.62.3,8.75,2.55,10.53,11.33,9.48,50.57-6,151.87-16.85,151.87-16.85s824.27-81.81,979.89-98.93C1163.71,548.8,172.79,619.26,48.69,628.43Z"/><path class="cls-1" d="M509.4,559.42c49.62-4.77,99.31-8.74,149-13.13,23.11-2,46.2-4.39,69.29-6.6-5.95-3.06-11.75-3.08-17.56-3.06-56.31.2-112.66-.7-168.91,1.17-21.47.72-36.24-4.62-48.08-22.71-8.78-13.42-20.55-24.87-31-37.2L460,480.34c10.56,22.74,21.5,45.31,31.48,68.29C495.18,557.28,499.72,560.36,509.4,559.42Z"/><path class="cls-1" d="M38.11,869l-3.57-35.52,7-.7,2.87,28.55,24.75-2.49.7,7Z"/><path class="cls-1" d="M109.06,861.84a20.7,20.7,0,0,1-5.57-.07,8.92,8.92,0,0,1-3.79-1.49,7.1,7.1,0,0,1-2.3-2.83,12.45,12.45,0,0,1-1-4.09l-2.6-25.86,7.16-.72,2.57,25.57a2.54,2.54,0,0,0,1.31,2.13,6.22,6.22,0,0,0,3.51.4l20.18-2a6.25,6.25,0,0,0,3.37-1.09,2.54,2.54,0,0,0,.85-2.34l-2.57-25.57,7.17-.72L139.9,849a12.86,12.86,0,0,1-.2,4.22,7.14,7.14,0,0,1-1.69,3.22,9,9,0,0,1-3.45,2.22,21,21,0,0,1-5.41,1.18Z"/><path class="cls-1" d="M168.56,855.87l-.7-7,19.95-2a6.3,6.3,0,0,0,3.36-1.09,2.57,2.57,0,0,0,.86-2.35l-2.57-25.57,7.16-.72,2.6,25.86a13.1,13.1,0,0,1-.21,4.22,7.23,7.23,0,0,1-1.69,3.23,8.86,8.86,0,0,1-3.44,2.21,21.13,21.13,0,0,1-5.42,1.18Z"/><path class="cls-1" d="M242.29,848.46a20.71,20.71,0,0,1-5.57-.07,9,9,0,0,1-3.79-1.49,7.23,7.23,0,0,1-2.3-2.82,13,13,0,0,1-1-4.1L228,823.78a12.86,12.86,0,0,1,.2-4.22,7.23,7.23,0,0,1,1.69-3.23,9.13,9.13,0,0,1,3.42-2.21,21.14,21.14,0,0,1,5.44-1.18l20.34-2a20.91,20.91,0,0,1,5.54.08,8.9,8.9,0,0,1,3.81,1.48,7.17,7.17,0,0,1,2.3,2.83,12.51,12.51,0,0,1,1,4.1l1.63,16.19a12.56,12.56,0,0,1-.21,4.22,7.08,7.08,0,0,1-1.69,3.23,9,9,0,0,1-3.44,2.22,20.56,20.56,0,0,1-5.42,1.17ZM236.73,839a2.53,2.53,0,0,0,1.3,2.13,6.22,6.22,0,0,0,3.51.4l20.43-2a6.21,6.21,0,0,0,3.36-1.09,2.56,2.56,0,0,0,.86-2.35l-1.57-15.62a2.53,2.53,0,0,0-1.3-2.12,6.17,6.17,0,0,0-3.52-.4l-20.42,2A6.2,6.2,0,0,0,236,821a2.54,2.54,0,0,0-.85,2.34Z"/><path class="cls-1" d="M304.34,842.23l-.7-7,30.76-3.09a6.17,6.17,0,0,0,3.37-1.09,2.52,2.52,0,0,0,.85-2.34l-.36-3.65A2.57,2.57,0,0,0,337,823a6.22,6.22,0,0,0-3.51-.4L313,824.62q-10.27,1-11-6.61l-.45-4.47q-.68-6.82,9.51-7.85l30.81-3.09.7,7-31.05,3.11a5.35,5.35,0,0,0-2.14.53,1.05,1.05,0,0,0-.47,1l.21,2.11a1.34,1.34,0,0,0,.7,1.17,4.66,4.66,0,0,0,2.25.14l20.71-2.08a20.93,20.93,0,0,1,5.54.07,9,9,0,0,1,3.82,1.49,7.19,7.19,0,0,1,2.3,2.83,13,13,0,0,1,1,4.09l.42,4.23a12.84,12.84,0,0,1-.2,4.22,7.23,7.23,0,0,1-1.69,3.23,9,9,0,0,1-3.45,2.22,21.4,21.4,0,0,1-5.41,1.17Z"/><path class="cls-1" d="M418.55,830.77,415,795.24,447,792a21,21,0,0,1,5.54.07,8.9,8.9,0,0,1,3.81,1.49,7.06,7.06,0,0,1,2.3,2.82,12.83,12.83,0,0,1,1.05,4.1l.46,4.61a12.56,12.56,0,0,1-.21,4.22,7,7,0,0,1-1.69,3.23,9,9,0,0,1-3.44,2.22,20.65,20.65,0,0,1-5.42,1.17l-25.09,2.52,1.16,11.59ZM423.7,812l25.14-2.52a6.21,6.21,0,0,0,3.36-1.09,2.55,2.55,0,0,0,.86-2.34l-.46-4.52a2.56,2.56,0,0,0-1.3-2.13,6.22,6.22,0,0,0-3.51-.4l-25.14,2.52Z"/><path class="cls-1" d="M502.27,822.36a21.06,21.06,0,0,1-5.56-.07,9.05,9.05,0,0,1-3.79-1.49,7.17,7.17,0,0,1-2.3-2.83,12.45,12.45,0,0,1-1-4.09L488,797.68a12.56,12.56,0,0,1,.21-4.22,7.08,7.08,0,0,1,1.69-3.23,8.85,8.85,0,0,1,3.42-2.21,20.73,20.73,0,0,1,5.44-1.18l20.33-2a20.94,20.94,0,0,1,5.54.07,9,9,0,0,1,3.82,1.49,7.19,7.19,0,0,1,2.3,2.83,13,13,0,0,1,1,4.09l1.62,16.2a12.84,12.84,0,0,1-.2,4.22,7.23,7.23,0,0,1-1.69,3.23,8.94,8.94,0,0,1-3.45,2.21,21,21,0,0,1-5.41,1.18Zm-5.56-9.49A2.52,2.52,0,0,0,498,815a6.13,6.13,0,0,0,3.51.4l20.42-2a6.17,6.17,0,0,0,3.37-1.09,2.54,2.54,0,0,0,.85-2.34l-1.56-15.62a2.57,2.57,0,0,0-1.31-2.13,6.22,6.22,0,0,0-3.51-.4l-20.43,2A6.21,6.21,0,0,0,496,794.9a2.56,2.56,0,0,0-.86,2.35Z"/><path class="cls-1" d="M564.52,816.11,561,780.59l7-.7,2.87,28.55L595.54,806l.7,7Z"/><path class="cls-1" d="M624.55,810.08l-2.35-23.46q-.59-5.8,2.49-9.28t10-4.16l16.39-1.64q6.93-.69,10.63,2.09t4.28,8.6l2.36,23.45-7,.7L660.23,795l-29.85,3,1.14,11.34Zm5.18-18.53,29.85-3-.56-5.62a7.3,7.3,0,0,0-.54-2.21,3.39,3.39,0,0,0-1.27-1.47,5.15,5.15,0,0,0-2.18-.75,14.51,14.51,0,0,0-3.3,0l-16.3,1.64a14.13,14.13,0,0,0-3.24.64,5.38,5.38,0,0,0-2,1.17,3.52,3.52,0,0,0-1,1.7,7.18,7.18,0,0,0-.08,2.26Z"/><path class="cls-1" d="M698.62,802.64l-3.57-35.52,32.06-3.22a21,21,0,0,1,5.55.08,9,9,0,0,1,3.81,1.48,7.17,7.17,0,0,1,2.3,2.83,13,13,0,0,1,1,4.1l.35,3.51a12.86,12.86,0,0,1-.2,4.22,7.14,7.14,0,0,1-1.69,3.22,9,9,0,0,1-3.45,2.22,20.57,20.57,0,0,1-5.41,1.17l-5.39.54,19.44,10.87L731,799.4l-18.1-11-8.56.86,1.28,12.69ZM703.69,783l25.14-2.53a6.21,6.21,0,0,0,3.36-1.09,2.54,2.54,0,0,0,.85-2.34l-.36-3.66a2.54,2.54,0,0,0-1.31-2.12,6.13,6.13,0,0,0-3.51-.4l-25.14,2.52Z"/><path class="cls-1" d="M771.49,795.33l-3.57-35.52,7-.7,3.57,35.52Z"/><path class="cls-1" d="M812,791.26a3.52,3.52,0,0,1-2.9-.8,3.65,3.65,0,0,1-1.21-2.38,3.86,3.86,0,0,1,.26-1.8,4.43,4.43,0,0,1,1.1-1.59L836.63,760,805.92,763l-.7-7,40.37-4a3.43,3.43,0,0,1,2.88.82,3.83,3.83,0,0,1,1.19,2.41,4,4,0,0,1-.24,1.75,4.17,4.17,0,0,1-1.08,1.59l-27.42,24.74,31-3.11.7,7Z"/><path class="cls-1" d="M882.32,784.2,880,760.74q-.59-5.82,2.49-9.28t10-4.16l16.39-1.64q6.92-.7,10.62,2.08t4.29,8.6l2.35,23.46-7,.7L918,769.16l-29.84,3,1.13,11.35Zm5.18-18.53,29.85-3-.56-5.63a7.23,7.23,0,0,0-.54-2.2,3.44,3.44,0,0,0-1.26-1.47,5.39,5.39,0,0,0-2.19-.76,14.58,14.58,0,0,0-3.3,0l-16.3,1.64a13.92,13.92,0,0,0-3.23.64,5.09,5.09,0,0,0-2,1.17,3.38,3.38,0,0,0-.94,1.7,6.87,6.87,0,0,0-.09,2.26Z"/><path class="cls-1" d="M956.39,776.76l-3.56-35.52,32-3.22a21.34,21.34,0,0,1,5.54.08,8.9,8.9,0,0,1,3.81,1.49,7,7,0,0,1,2.3,2.82,12.76,12.76,0,0,1,1,4.1l1.62,16.2a12.57,12.57,0,0,1-.21,4.22,7,7,0,0,1-1.69,3.23,9.09,9.09,0,0,1-3.44,2.21,21,21,0,0,1-5.41,1.18Zm6.27-7.67,25.09-2.52a6.21,6.21,0,0,0,3.36-1.09,2.52,2.52,0,0,0,.86-2.34l-1.57-15.62a2.53,2.53,0,0,0-1.3-2.13,6.13,6.13,0,0,0-3.51-.4l-25.09,2.52Z"/><path class="cls-1" d="M1041.85,768.18a21,21,0,0,1-5.56-.07,9.05,9.05,0,0,1-3.79-1.49,7.09,7.09,0,0,1-2.3-2.83,12.45,12.45,0,0,1-1-4.09l-1.63-16.2a12.56,12.56,0,0,1,.21-4.22,7.08,7.08,0,0,1,1.69-3.23,8.85,8.85,0,0,1,3.42-2.21,20.64,20.64,0,0,1,5.44-1.18l20.33-2a21,21,0,0,1,5.54.07,8.9,8.9,0,0,1,3.81,1.49,7,7,0,0,1,2.3,2.83,12.7,12.7,0,0,1,1,4.09l1.62,16.2a12.86,12.86,0,0,1-.2,4.22,7.15,7.15,0,0,1-1.7,3.23,8.9,8.9,0,0,1-3.44,2.21,20.94,20.94,0,0,1-5.42,1.18Zm-5.56-9.49a2.53,2.53,0,0,0,1.3,2.12,6.16,6.16,0,0,0,3.52.4l20.42-2.05a6.21,6.21,0,0,0,3.36-1.09,2.52,2.52,0,0,0,.86-2.34l-1.57-15.62a2.56,2.56,0,0,0-1.3-2.13,6.22,6.22,0,0,0-3.51-.4l-20.43,2a6.21,6.21,0,0,0-3.36,1.09,2.56,2.56,0,0,0-.86,2.35Z"/><path class="cls-1" d="M1103.9,762l-.7-7,30.77-3.09a6.21,6.21,0,0,0,3.36-1.09,2.56,2.56,0,0,0,.86-2.35l-.37-3.65a2.54,2.54,0,0,0-1.31-2.12,6.13,6.13,0,0,0-3.51-.4l-20.47,2.05q-10.29,1-11.06-6.61l-.45-4.47q-.68-6.82,9.51-7.85l30.81-3.09.7,7-31,3.12a4.92,4.92,0,0,0-2.13.53,1,1,0,0,0-.48,1l.21,2.12a1.33,1.33,0,0,0,.7,1.16,4.66,4.66,0,0,0,2.25.14l20.71-2.08a21,21,0,0,1,5.55.08,9,9,0,0,1,3.81,1.48,7.17,7.17,0,0,1,2.3,2.83,12.77,12.77,0,0,1,1,4.09l.43,4.24a13.12,13.12,0,0,1-.21,4.22,7.2,7.2,0,0,1-1.69,3.22,9,9,0,0,1-3.45,2.22,20.48,20.48,0,0,1-5.41,1.17Z"/><path class="cls-1" d="M254,689.84l-40.23,107L63.3,811.93Q51,813.16,44.33,808a17.07,17.07,0,0,1-6.19-12,20.28,20.28,0,0,1,1.3-9.67l15.32-41.47q5.51-15.1,27-17.26l115.29-11.58,2.62-7.77a6.32,6.32,0,0,0,.4-2.76q-.56-5.53-10.65-4.52L66.32,713.37l11.79-31.52,151.63-15.22q23.76-2.39,25.47,14.54A18.59,18.59,0,0,1,254,689.84ZM185.3,747.56l-77.16,7.75q-10.55,1.07-13.22,8.21l-2.36,5.8a10,10,0,0,0-.51,4q.54,5.36,8.16,4.59l76.71-7.7Z"/><path class="cls-1" d="M456.85,742.07l-11.78,31.52-168,16.87L325.29,657l48.45-4.87-37.11,102Z"/><path class="cls-1" d="M692.26,647.44l-13.62,35.73q-5,13.1-20.29,16.88L539,712l-20.61,54.18L469.72,771l50.45-133.81L661.26,623q13.46-1.35,22.66,2.33T694,637.43A21.62,21.62,0,0,1,692.26,647.44ZM639.8,661.91a4.12,4.12,0,0,0,.09-1.3q-.51-5.11-11.73-4l-71.1,7.14-6.44,17.11,72.67-7.3q7.86-.8,11.09-2.41A7.56,7.56,0,0,0,638,666.6Z"/><path class="cls-1" d="M935.81,595.39l-50.89,134L836,734.32l20.62-54.18-89.95,9L746.3,743.33l-48.9,4.91,50.66-134,49.13-4.94-18,48.76,89.5-9,18.43-48.8Z"/><path class="cls-1" d="M1162.24,598.62,1122,705.6,971.5,720.71q-12.35,1.24-19-3.91a17,17,0,0,1-6.19-12,20.43,20.43,0,0,1,1.29-9.67L963,653.68q5.5-15.1,27-17.27l115.3-11.58,2.62-7.77a6.43,6.43,0,0,0,.4-2.75q-.55-5.53-10.65-4.52L974.52,622.16l11.78-31.52,151.63-15.23q23.77-2.38,25.48,14.55A18.53,18.53,0,0,1,1162.24,598.62Zm-68.74,57.73-77.16,7.75q-10.55,1.06-13.23,8.2l-2.36,5.81a10.16,10.16,0,0,0-.5,4q.53,5.35,8.16,4.59l76.71-7.71Z"/></g></svg>
