<svg id="Capa_1" data-name="Capa 1" xmlns="http://www.w3.org/2000/svg" viewBox="0 0 1200 1200"><defs><style>.cls-1{fill:#eb0203;}.cls-2{fill:#d80304;}.cls-3{fill:#fc0101;}.cls-4{fill:#fa0102;}.cls-5{fill:#1d1d1b;}</style></defs><path class="cls-1" d="M542.34,396.22c.2,2.73-1.36,6,4.12,5.8,4.8-.16,10.81-1.25,14.16,6.47H515.24c9-6.85,17.45-10.86,27.21-12.13Z"/><path class="cls-2" d="M542.45,396.36c14.66-10.14,22.21-6.7,27.91,16.28-8.51-11.42-15.63-19.67-28-16.41Z"/><path class="cls-3" d="M1157.22,767c-25.3,3-525.77,57.18-525.77,57.18S40.65,888,28.16,889.12C67.85,888,285.45,871.22,342.25,867c7-.52,12.76-.16,18.48,6,62.48,66.76,132.72,124.46,207.39,177,9.25,6.51,15.2,7,24.81.25,87.3-61.73,168.44-130.31,238.44-211.48,4.45-5.17,9-7.82,16.09-8.33,99.28-7.1,198.53-14.71,297.82-21.78,27.1-1.93,26.54-1.32,27-27.26C1172.53,769.57,1169.74,765.55,1157.22,767ZM714.14,899.5c-39,36.16-80.7,69.16-123.5,100.74-5.85,4.31-10.16,7.28-17.89,1.64C517.24,961.39,464.28,918,415.62,869.37c-1.38-1.38-2.32-3.21-5-7l367-26.95C756.48,859.87,735.39,879.8,714.14,899.5Z"/><path class="cls-4" d="M973.47,373.81c-88.65-28.51-179.05-47-272.62-43.92-36,1.18-72.79,1.65-106.63,16.21-37.09,16-73.36,33.82-109.85,51.15-3.75,1.78-9.53,1.9-10.27,7.35,17,6.79,32.29,2.84,47.34-5.77A384,384,0,0,1,557.11,381c24.26-10.71,46.28-26.88,72.48-32.68,39.31-8.71,79.33-7.84,119.16-4.38,33.79,2.94,33.55,3.52,27,37.37-1.48,7.67-3.9,12-12.73,12.82-16.21,1.5-32.28,4.48-48.4,6.85,89.56,1.85,178-8.89,266.44-21.3C979.74,375.22,976.46,374.77,973.47,373.81ZM875.9,370c-.33,4.89-5.91,5.83-9.82,6.65-22.74,4.75-45.56,9.11-68.35,13.61-7.15.59-10.26-1.95-8.34-9.26a13.92,13.92,0,0,0,.32-1.56c4.71-32.33,4.73-32.41,37.42-26,13,2.54,25.91,5.17,38.68,8.47C869.94,363,876.32,363.9,875.9,370Z"/><path class="cls-5" d="M139,415.85c2.5,28,2.46,27.06,29.26,20.5,12.37-3,14.52-8.4,13-19.76-4.24-31.7-4.17-63.7-5.86-95.59-.79-14.68,4.6-22.25,17.19-28.06,17.32-8,33.79-17.81,51-26.11,131.67-63.54,270-92.2,416.17-77.85,123.88,12.16,239,52.59,348.94,109.66,9.55,5,9,11.68,9,19.58.15,24.78.17,24.78,25.51,27.08a38.08,38.08,0,0,1,6.35.68c7.75,2.06,9.86-.83,10.36-8.7,3.65-57.54,3.83-57.53-47.31-83.55-1.89-1-3.81-1.88-5.71-2.83-123.1-61.45-252.18-101.51-390.5-106.84-150.83-5.81-291.57,31.61-424.4,101.63-59.58,31.42-59.67,31.25-57.82,109.23C135.25,368.11,136.89,392,139,415.85Z"/><path class="cls-5" d="M1074.09,443.76c-10.57-21-21.68-42.07-5.59-66.19-4.23-.64-6.3-.9-8.35-1.27-24.07-4.37-45.74,6.53-68.57,10.32C874.3,406.09,756,415.51,637.2,418.13c-54.26,1.2-108.6,3.48-162.79-2.73-27.12-3.11-54.9-2.56-80.8,4.11-11.23,2.89-19.21,1-28.3-1.08-28.26-6.38-54.92-2.72-80.34,10.84-10.56,5.63-20.41,10.4-33.18,13-46.56,9.55-90.08,28.27-127.5,58.83-5.82,4.76-11.08,10.22-18.46,17.08,24.76,3.32,17.47,21.66,20.56,34.2,3.54,14.34,1.65,28.15-17,39.2l52.23-3.93c2-3.51-1.09-4.19-3.07-5.49-22.07,1.6-18.26-16.07-20.73-28.51-1.63-8.2-4.84-18.47-1.48-24.63,3.69-6.78,13.06,3.86,20.38,1.1a14.74,14.74,0,0,0,2.07-1.58L132.4,514.68c31.08-17.93,63.41-23.15,95.81-28.25,9.94-1.57.35,8.93,6.16,9.8,42.41-69.63,145.06-84.43,205-8.11,5.33-11-7.8-17.34-7.36-27.09,87.57-7.51,174.6-14.4,261.5-22.66,42.2-4,85.33-1,127.88-17-32.34,38.69-39.31,51.78-37.7,68.76,41.48-69.08,103.58-81.7,177.35-61.41-1.25-10.07-11.35-9.56-16.21-18.11,25.29,9.92,48.5,2.65,71.5.88,17-1.31,25.53,5.31,32.11,20.67-8.23,0-15.1,0-22,0-7.45,0-10,5.62-11.49,11.26-1.52,5.85,4.38,6,7.75,7.64,26,12.61,49.19,28.29,60.76,60.3C1091.27,484.48,1084.28,464,1074.09,443.76Z"/><path class="cls-5" d="M49.56,627.51c-29.17,2.16-28.79,2.66-27.77,32.38.29,8.69,2.53,10.45,11.24,9.41,50.21-6,150.78-16.72,150.78-16.72s818.31-81.22,972.81-98.22C1156.53,548.46,172.77,618.4,49.56,627.51Z"/><path class="cls-5" d="M507,559c49.26-4.74,98.59-8.68,147.88-13,22.95-2,45.87-4.37,68.8-6.56-5.91-3-11.68-3-17.44-3-55.9.19-111.84-.7-167.69,1.16-21.32.7-36-4.59-47.74-22.56-8.71-13.31-20.39-24.68-30.75-36.92l-2.16,2.43c10.49,22.57,21.35,45,31.25,67.79C492.83,556.87,497.33,559.93,507,559Z"/><path class="cls-3" d="M39.06,866.31,35.52,831l6.92-.69,2.85,28.34,24.57-2.46.7,6.92Z"/><path class="cls-3" d="M109.49,859.24a21.18,21.18,0,0,1-5.52-.07,8.91,8.91,0,0,1-3.76-1.48,7.17,7.17,0,0,1-2.29-2.81,12.58,12.58,0,0,1-1-4.07l-2.58-25.67,7.11-.71L104,849.81a2.51,2.51,0,0,0,1.3,2.11,6,6,0,0,0,3.48.4l20-2a6.22,6.22,0,0,0,3.34-1.08,2.52,2.52,0,0,0,.85-2.33l-2.55-25.39,7.11-.71,2.58,25.67a12.66,12.66,0,0,1-.2,4.19,7.24,7.24,0,0,1-1.68,3.21,9.07,9.07,0,0,1-3.42,2.2,20.85,20.85,0,0,1-5.38,1.16Z"/><path class="cls-3" d="M168.57,853.3l-.7-6.92,19.81-2a6.16,6.16,0,0,0,3.34-1.09,2.53,2.53,0,0,0,.85-2.32l-2.55-25.39,7.11-.71L199,840.56a12.66,12.66,0,0,1-.2,4.19,7.1,7.1,0,0,1-1.68,3.21,8.79,8.79,0,0,1-3.42,2.19,20.23,20.23,0,0,1-5.38,1.17Z"/><path class="cls-3" d="M241.77,846a20.4,20.4,0,0,1-5.53-.07,8.71,8.71,0,0,1-3.76-1.48,7,7,0,0,1-2.28-2.8,12.58,12.58,0,0,1-1-4.07l-1.61-16.08a12.67,12.67,0,0,1,.2-4.19,7.21,7.21,0,0,1,1.68-3.2,8.83,8.83,0,0,1,3.4-2.2,20.74,20.74,0,0,1,5.4-1.17l20.18-2a20.6,20.6,0,0,1,5.5.08,8.86,8.86,0,0,1,3.79,1.47A7.07,7.07,0,0,1,270,813a12.58,12.58,0,0,1,1,4.07l1.61,16.08a12.67,12.67,0,0,1-.2,4.19,7.21,7.21,0,0,1-1.68,3.2,9,9,0,0,1-3.42,2.2,21.15,21.15,0,0,1-5.38,1.17Zm-5.53-9.42a2.51,2.51,0,0,0,1.3,2.11,6.16,6.16,0,0,0,3.49.4l20.28-2a6,6,0,0,0,3.33-1.08,2.54,2.54,0,0,0,.86-2.33l-1.56-15.5a2.55,2.55,0,0,0-1.3-2.12,6.16,6.16,0,0,0-3.49-.39l-20.28,2a6.13,6.13,0,0,0-3.33,1.09,2.51,2.51,0,0,0-.85,2.32Z"/><path class="cls-3" d="M303.37,839.77l-.69-6.92,30.54-3.07a6.09,6.09,0,0,0,3.34-1.08,2.56,2.56,0,0,0,.85-2.33l-.37-3.62a2.53,2.53,0,0,0-1.29-2.11,6.07,6.07,0,0,0-3.49-.4l-20.33,2q-10.21,1-11-6.56l-.45-4.44q-.67-6.78,9.44-7.79l30.59-3.07.69,6.92-30.83,3.09a5,5,0,0,0-2.11.53,1,1,0,0,0-.48,1l.21,2.1a1.32,1.32,0,0,0,.7,1.16,4.57,4.57,0,0,0,2.23.14l20.57-2.06a20.65,20.65,0,0,1,5.5.07,8.86,8.86,0,0,1,3.79,1.47,7.24,7.24,0,0,1,2.28,2.81,12.58,12.58,0,0,1,1,4.07l.42,4.2a12.67,12.67,0,0,1-.2,4.19,7.11,7.11,0,0,1-1.68,3.2,8.88,8.88,0,0,1-3.42,2.2,21,21,0,0,1-5.38,1.17Z"/><path class="cls-3" d="M416.75,828.38l-3.54-35.26,31.83-3.2a21,21,0,0,1,5.5.08,8.86,8.86,0,0,1,3.79,1.47,7.24,7.24,0,0,1,2.28,2.81,12.58,12.58,0,0,1,1,4.07l.46,4.58a12.67,12.67,0,0,1-.2,4.19,7.21,7.21,0,0,1-1.68,3.2,9,9,0,0,1-3.42,2.2,21.15,21.15,0,0,1-5.38,1.17l-24.91,2.5,1.16,11.5Zm5.12-18.63,24.95-2.51a6.22,6.22,0,0,0,3.34-1.08,2.52,2.52,0,0,0,.85-2.33l-.45-4.48a2.53,2.53,0,0,0-1.29-2.11,6.07,6.07,0,0,0-3.49-.4l-25,2.5Z"/><path class="cls-3" d="M499.88,820a21.25,21.25,0,0,1-5.53-.07,8.91,8.91,0,0,1-3.76-1.48,7.17,7.17,0,0,1-2.29-2.81,12.58,12.58,0,0,1-1-4.06l-1.62-16.09a13,13,0,0,1,.21-4.19,7,7,0,0,1,1.68-3.2,8.83,8.83,0,0,1,3.39-2.2,20.93,20.93,0,0,1,5.4-1.17l20.19-2a20.65,20.65,0,0,1,5.5.07,8.86,8.86,0,0,1,3.79,1.48,7,7,0,0,1,2.28,2.8,12.58,12.58,0,0,1,1,4.07l1.62,16.08a12.38,12.38,0,0,1-.21,4.19,7.09,7.09,0,0,1-1.67,3.2,8.84,8.84,0,0,1-3.42,2.2,20.41,20.41,0,0,1-5.38,1.17Zm-5.53-9.43a2.55,2.55,0,0,0,1.3,2.12,6.12,6.12,0,0,0,3.48.39l20.28-2a6.16,6.16,0,0,0,3.34-1.09,2.51,2.51,0,0,0,.85-2.32L522,792.17a2.53,2.53,0,0,0-1.29-2.11,6.16,6.16,0,0,0-3.49-.4l-20.28,2a6.09,6.09,0,0,0-3.34,1.08,2.54,2.54,0,0,0-.85,2.33Z"/><path class="cls-3" d="M561.67,813.83l-3.54-35.26,6.92-.7,2.84,28.35,24.58-2.47.69,6.92Z"/><path class="cls-3" d="M621.27,807.85l-2.34-23.29q-.58-5.77,2.47-9.21t9.93-4.13l16.27-1.64q6.87-.69,10.55,2.08t4.25,8.54l2.34,23.28-6.92.7-1.13-11.26-29.63,3,1.13,11.26Zm5.14-18.4,29.63-3-.56-5.58a6.9,6.9,0,0,0-.53-2.19,3.41,3.41,0,0,0-1.26-1.46,5.06,5.06,0,0,0-2.17-.75,14.32,14.32,0,0,0-3.27,0l-16.18,1.62a14.14,14.14,0,0,0-3.21.64,5.11,5.11,0,0,0-2,1.16,3.32,3.32,0,0,0-.94,1.69,6.81,6.81,0,0,0-.09,2.25Z"/><path class="cls-3" d="M694.8,800.46l-3.54-35.26,31.83-3.2a21,21,0,0,1,5.5.08,8.86,8.86,0,0,1,3.79,1.47,7.07,7.07,0,0,1,2.28,2.81,12.84,12.84,0,0,1,1,4.07l.34,3.48a12.66,12.66,0,0,1-.2,4.19,7.11,7.11,0,0,1-1.68,3.2,8.76,8.76,0,0,1-3.42,2.2,20.24,20.24,0,0,1-5.37,1.17l-5.35.54L739.32,796l-12.4,1.25-18-10.92-8.49.85,1.26,12.6Zm5-19.49,25-2.51a6.09,6.09,0,0,0,3.34-1.08,2.54,2.54,0,0,0,.85-2.33l-.37-3.62a2.53,2.53,0,0,0-1.29-2.11,6.07,6.07,0,0,0-3.49-.4l-25,2.5Z"/><path class="cls-3" d="M767.14,793.2l-3.54-35.26,6.92-.7,3.54,35.27Z"/><path class="cls-3" d="M807.32,789.17a3.52,3.52,0,0,1-2.87-.8,3.64,3.64,0,0,1-1.21-2.36,3.82,3.82,0,0,1,.26-1.79,4.36,4.36,0,0,1,1.09-1.58l27.23-24.56-30.49,3.06-.7-6.92,40.08-4a3.47,3.47,0,0,1,2.86.82,3.8,3.8,0,0,1,1.18,2.39,3.89,3.89,0,0,1-.24,1.74,4,4,0,0,1-1.07,1.57l-27.22,24.57L847,778.19l.69,6.92Z"/><path class="cls-3" d="M877.18,782.15l-2.34-23.29c-.38-3.84.44-6.92,2.48-9.21s5.34-3.67,9.92-4.13l16.27-1.63q6.87-.69,10.55,2.07t4.25,8.54l2.34,23.29-6.92.69-1.13-11.26-29.63,3,1.13,11.27Zm5.14-18.4,29.64-3-.57-5.59a6.9,6.9,0,0,0-.53-2.18,3.48,3.48,0,0,0-1.25-1.47,5.29,5.29,0,0,0-2.18-.74,14.25,14.25,0,0,0-3.27,0L888,752.44a14.44,14.44,0,0,0-3.21.63,5.13,5.13,0,0,0-2,1.17,3.37,3.37,0,0,0-.94,1.68,6.81,6.81,0,0,0-.09,2.25Z"/><path class="cls-3" d="M950.71,774.77l-3.54-35.27L979,736.31a20.68,20.68,0,0,1,5.51.08,8.86,8.86,0,0,1,3.78,1.47,7.07,7.07,0,0,1,2.28,2.81,12.58,12.58,0,0,1,1,4.06l1.61,16.09A12.67,12.67,0,0,1,993,765a7.21,7.21,0,0,1-1.68,3.2,9,9,0,0,1-3.42,2.2,21,21,0,0,1-5.38,1.17Zm6.23-7.62,24.91-2.5a6.1,6.1,0,0,0,3.33-1.08,2.55,2.55,0,0,0,.86-2.33l-1.56-15.51a2.53,2.53,0,0,0-1.3-2.11,6.14,6.14,0,0,0-3.48-.39l-24.91,2.5Z"/><path class="cls-3" d="M1035.56,766.25a20.82,20.82,0,0,1-5.53-.07,8.91,8.91,0,0,1-3.76-1.48,7.17,7.17,0,0,1-2.29-2.81,12.78,12.78,0,0,1-1-4.06l-1.61-16.08a12.73,12.73,0,0,1,.2-4.2,7,7,0,0,1,1.68-3.2,9,9,0,0,1,3.39-2.2A20.92,20.92,0,0,1,1032,731l20.18-2a20.64,20.64,0,0,1,5.5.07,9,9,0,0,1,3.79,1.48,7,7,0,0,1,2.28,2.8,12.91,12.91,0,0,1,1,4.07l1.61,16.08a12.66,12.66,0,0,1-.2,4.19,7.3,7.3,0,0,1-1.68,3.21,9.07,9.07,0,0,1-3.42,2.2,20.85,20.85,0,0,1-5.38,1.16Zm-5.53-9.42a2.53,2.53,0,0,0,1.3,2.11,6.12,6.12,0,0,0,3.48.39l20.28-2a6.13,6.13,0,0,0,3.34-1.09,2.5,2.5,0,0,0,.85-2.32l-1.55-15.51a2.54,2.54,0,0,0-1.3-2.11,6.16,6.16,0,0,0-3.49-.4l-20.28,2a6.1,6.1,0,0,0-3.33,1.08,2.55,2.55,0,0,0-.86,2.33Z"/><path class="cls-3" d="M1097.16,760.06l-.69-6.92,30.53-3.06a6.13,6.13,0,0,0,3.34-1.09,2.51,2.51,0,0,0,.85-2.32l-.36-3.63a2.53,2.53,0,0,0-1.3-2.11,6.2,6.2,0,0,0-3.48-.4l-20.33,2q-10.21,1-11-6.56l-.45-4.44q-.67-6.77,9.44-7.79l30.58-3.07.7,6.92-30.83,3.1a5,5,0,0,0-2.11.52,1,1,0,0,0-.48,1l.21,2.1a1.33,1.33,0,0,0,.7,1.16,4.6,4.6,0,0,0,2.23.13l20.56-2.06a21.15,21.15,0,0,1,5.51.07,9,9,0,0,1,3.78,1.48,7.1,7.1,0,0,1,2.29,2.81,12.78,12.78,0,0,1,1,4.06l.42,4.2a12.66,12.66,0,0,1-.2,4.19,7.21,7.21,0,0,1-1.68,3.2,8.84,8.84,0,0,1-3.42,2.2,20.32,20.32,0,0,1-5.38,1.17Z"/><path class="cls-5" d="M253.44,688.47l-39.95,106.2-149.42,15q-12.24,1.23-18.83-3.89a17,17,0,0,1-6.15-11.89,20.25,20.25,0,0,1,1.29-9.6l15.21-41.17q5.46-15,26.84-17.14l114.46-11.5,2.6-7.71a6.24,6.24,0,0,0,.4-2.74q-.54-5.49-10.57-4.48L67.07,711.84l11.7-31.29L229.3,665.43q23.61-2.37,25.3,14.44A18.54,18.54,0,0,1,253.44,688.47Zm-68.25,57.31-76.6,7.7q-10.47,1-13.13,8.14l-2.34,5.76a9.91,9.91,0,0,0-.51,4q.54,5.31,8.11,4.55l76.15-7.65Z"/><path class="cls-5" d="M454.78,740.33l-11.7,31.29L276.29,788.37,324.16,655.9l48.1-4.83L335.42,752.32Z"/><path class="cls-5" d="M688.49,646.38,675,681.86q-5,13-20.13,16.76L536.36,710.51,515.9,764.3,467.56,769l50.08-132.85,140.07-14.07q13.37-1.33,22.5,2.31t10,12.05A21.56,21.56,0,0,1,688.49,646.38ZM636.4,660.74a3.76,3.76,0,0,0,.1-1.29q-.51-5.07-11.65-4l-70.59,7.08-6.39,17L620,672.32q7.8-.78,11-2.39a7.55,7.55,0,0,0,3.59-4.52Z"/><path class="cls-5" d="M930.28,594.71l-50.52,133-48.55,4.87,20.47-53.79-89.3,9-20.24,53.77-48.55,4.88,50.3-133,48.77-4.9-17.86,48.4L863.65,648,882,599.56Z"/><path class="cls-5" d="M1155.08,597.92l-39.95,106.2-149.42,15q-12.24,1.23-18.83-3.89a17,17,0,0,1-6.15-11.9,20.25,20.25,0,0,1,1.29-9.6l15.21-41.17q5.46-15,26.84-17.14l114.46-11.49,2.6-7.71a6.24,6.24,0,0,0,.4-2.74Q1101,608,1091,609L968.71,621.28,980.41,590l150.53-15.11q23.61-2.39,25.3,14.43A18.6,18.6,0,0,1,1155.08,597.92Zm-68.25,57.31-76.6,7.69q-10.47,1.05-13.13,8.15l-2.35,5.76a10,10,0,0,0-.5,3.95q.54,5.33,8.11,4.55l76.15-7.64Z"/></svg>
